<svg width="34" height="36" viewBox="0 0 34 36" fill="none" xmlns="http://www.w3.org/2000/svg">
<path d="M0.87085 4.5C0.87085 3.30653 1.29568 2.16193 2.05187 1.31802C2.80807 0.474106 3.83369 0 4.90311 0L29.0967 0C30.1661 0 31.1917 0.474106 31.9479 1.31802C32.7041 2.16193 33.1289 3.30653 33.1289 4.5V31.5C33.1289 32.6935 32.7041 33.8381 31.9479 34.682C31.1917 35.5259 30.1661 36 29.0967 36H4.90311C3.83369 36 2.80807 35.5259 2.05187 34.682C1.29568 33.8381 0.87085 32.6935 0.87085 31.5V4.5ZM8.93537 13.5C8.74105 13.4999 8.55086 13.5626 8.38769 13.6803C8.22452 13.7981 8.09532 13.966 8.01566 14.1637C7.93599 14.3615 7.90924 14.5808 7.93863 14.7952C7.96803 15.0095 8.05231 15.2098 8.18133 15.372L16.2458 25.497C16.3404 25.616 16.4565 25.7112 16.5865 25.7764C16.7165 25.8416 16.8574 25.8753 16.9999 25.8753C17.1424 25.8753 17.2833 25.8416 17.4132 25.7764C17.5432 25.7112 17.6593 25.616 17.7539 25.497L25.8184 15.372C25.9475 15.2098 26.0317 15.0095 26.0611 14.7952C26.0905 14.5808 26.0638 14.3615 25.9841 14.1637C25.9044 13.966 25.7752 13.7981 25.6121 13.6803C25.4489 13.5626 25.2587 13.4999 25.0644 13.5H8.93537Z" fill="black" fill-opacity="0.66"/>
</svg>
