<svg width="23" height="26" viewBox="0 0 23 26" fill="none" xmlns="http://www.w3.org/2000/svg">
<g style="mix-blend-mode:darken">
<path d="M10.0043 0.904438L7.35021 7.62704L1.41202 8.70855C0.347133 8.9015 -0.0796362 10.5415 0.692612 11.4809L4.98875 16.7107L3.97264 24.0984C3.78974 25.4338 4.91559 26.4341 5.85855 25.8096L11.1708 22.3213L16.4831 25.8096C17.426 26.429 18.5519 25.4338 18.369 24.0984L17.3529 16.7107L21.649 11.4809C22.4212 10.5415 21.9945 8.9015 20.9296 8.70855L14.9914 7.62704L12.3373 0.904438C11.8618 -0.293851 10.4839 -0.309084 10.0043 0.904438Z" fill="black" fill-opacity="0.24"/>
<path d="M7.4398 8.11895L7.71322 8.06916L7.81527 7.81065L10.4693 1.08822C10.6457 0.641817 10.944 0.499076 11.1703 0.500005C11.3989 0.500943 11.6978 0.648927 11.8724 1.08849C11.8725 1.08862 11.8725 1.08874 11.8726 1.08887L14.5263 7.81065L14.6284 8.06916L14.9018 8.11895L20.84 9.20046L20.8404 9.20054C21.1193 9.25106 21.3819 9.50798 21.4943 9.94052C21.6049 10.3665 21.5294 10.839 21.2628 11.1633L21.2626 11.1635L16.9665 16.3933L16.8277 16.5622L16.8575 16.7788L17.8736 24.1663C17.8736 24.1664 17.8736 24.1665 17.8736 24.1665C17.9442 24.6821 17.7583 25.0957 17.514 25.3152C17.2814 25.5242 17.0125 25.5591 16.7576 25.3917L16.7575 25.3916L11.4452 21.9034L11.1708 21.7232L10.8964 21.9034L5.5841 25.3916L5.58246 25.3927C5.32808 25.5612 5.06035 25.5266 4.82793 25.3174C4.58341 25.0972 4.39737 24.6821 4.46801 24.1663L5.48409 16.7788L5.51388 16.5622L5.37511 16.3933L1.07897 11.1635L1.07884 11.1633C0.812165 10.839 0.736666 10.3665 0.847329 9.94052C0.95969 9.50798 1.22234 9.25106 1.50117 9.20054L1.50161 9.20046L7.4398 8.11895Z" stroke="black" stroke-opacity="0.04"/>
</g>
</svg>
